# xmcd
#
# Track frame offsets:
# 150
# 16484
# 28611
# 44128
# 60113
# 72568
# 86834
# 102028
# 116714
# 128555
# 133890
#
# Disc length: 2018 seconds
#
#
# Revision: 0
# Processed by: cddbd v1.5.1PL0 Copyright (c) Steve Scherf et al.
# Submitted via: FreeRIP 2.91 
#
DISCID=9907e00b
DTITLE=Gunnar Guenette - Tricycles, Lions and Other Fine Toys
DYEAR=2002
DGENRE=Folk/Rock
TTITLE0=A Day in September
TTITLE1=Night Like This
TTITLE2=Allie's Song
TTITLE3=Tie Me Down
TTITLE4=Love Me Once Again
TTITLE5=New Love
TTITLE6=Living and Loving
TTITLE7=First
TTITLE8=Home
TTITLE9=Autumn Leaves
TTITLE10=River Valley
EXTD=www.gunnaronline.com
EXTT0=
EXTT1=
EXTT2=
EXTT3=
EXTT4=
EXTT5=
EXTT6=
EXTT7=
EXTT8=
EXTT9=
EXTT10=
PLAYORDER=
